<?xml version="1.0" standalone="no"?>
<!DOCTYPE svg PUBLIC "-//W3C//DTD SVG 20010904//EN"
 "http://www.w3.org/TR/2001/REC-SVG-20010904/DTD/svg10.dtd">
<svg version="1.0" xmlns="http://www.w3.org/2000/svg"
 width="600.000000pt" height="600.000000pt" viewBox="0 0 600.000000 600.000000"
 preserveAspectRatio="xMidYMid meet">
<metadata>
Created by potrace 1.11, written by Peter Selinger 2001-2013
</metadata>
<g transform="translate(0.000000,600.000000) scale(0.100000,-0.100000)"
fill="#000000" stroke="none">
<path d="M0 5930 l0 -70 40 0 c36 0 40 -2 40 -25 0 -22 4 -25 40 -25 36 0 40
3 40 25 0 23 4 25 40 25 l40 0 0 -65 0 -65 45 0 45 0 0 53 0 52 148 -1 c81 -1
150 -2 155 -3 4 0 7 -17 7 -36 0 -34 1 -35 40 -35 29 0 40 -4 40 -15 0 -11 11
-15 40 -15 37 0 39 2 46 35 3 19 4 44 1 55 -5 19 0 20 74 20 l79 0 0 40 0 40
80 0 80 0 0 -40 0 -40 40 0 c36 0 40 3 40 25 0 23 4 25 40 25 29 0 40 4 40 15
0 11 11 15 40 15 29 0 40 -4 40 -15 0 -12 20 -15 120 -15 100 0 120 3 120 15
0 13 98 15 820 15 l820 0 0 40 0 40 -1620 0 -1620 0 0 -70z"/>
<path d="M2320 5825 c0 -11 11 -15 40 -15 29 0 40 4 40 15 0 11 -11 15 -40 15
-29 0 -40 -4 -40 -15z"/>
<path d="M2855 5749 c20 -13 93 -20 100 -10 2 4 -11 7 -28 8 -18 1 -45 5 -62
8 -27 6 -28 5 -10 -6z"/>
<path d="M3053 5753 c9 -2 23 -2 30 0 6 3 -1 5 -18 5 -16 0 -22 -2 -12 -5z"/>
<path d="M2800 5719 c0 -5 5 -7 10 -4 6 3 10 8 10 11 0 2 -4 4 -10 4 -5 0 -10
-5 -10 -11z"/>
<path d="M3000 5720 c-39 -6 -33 -7 38 -8 49 -1 82 2 82 8 0 11 -50 11 -120 0z"/>
<path d="M740 5666 c0 -11 10 -16 31 -16 38 0 35 24 -4 28 -19 2 -27 -1 -27
-12z"/>
<path d="M2606 5658 c7 -11 34 -10 34 1 0 6 -9 9 -19 8 -11 0 -17 -5 -15 -9z"/>
<path d="M3266 5662 c-10 -9 8 -32 35 -46 34 -17 50 -2 23 20 -18 14 -17 15 9
9 20 -4 27 -2 27 10 0 12 -11 15 -45 13 -25 0 -47 -3 -49 -6z"/>
<path d="M2771 5611 c-19 -12 -6 -41 19 -41 21 0 24 8 14 34 -7 18 -13 19 -33
7z"/>
<path d="M2165 5549 c-3 -10 -5 -21 -4 -25 6 -34 -20 -37 -66 -8 -11 6 -48 15
-82 18 -80 9 -151 -20 -160 -65 -7 -34 -26 -37 -90 -13 l-44 17 -35 -42 c-20
-22 -42 -41 -50 -41 -17 0 -18 -10 -2 -47 14 -36 11 -65 -10 -80 -27 -22 -49
-15 -62 20 -6 17 -16 40 -21 49 -5 10 -9 25 -9 33 0 25 -35 56 -54 49 -15 -6
-16 -15 -11 -54 7 -51 -9 -80 -45 -80 -10 0 -22 -9 -25 -20 -11 -33 -41 -44
-91 -30 -23 7 -51 21 -60 31 -9 11 -27 19 -38 19 -13 0 -42 21 -71 50 -27 28
-58 50 -68 50 -10 0 -27 5 -39 11 -23 12 -41 2 -18 -11 8 -4 29 -20 45 -34 17
-14 33 -26 36 -26 15 0 29 -52 19 -71 -13 -23 -13 -23 -74 -2 l-48 18 -20 -24
c-18 -24 -19 -24 -24 -4 -6 22 -49 47 -65 37 -17 -10 -29 -54 -23 -80 5 -20
12 -24 46 -24 39 0 40 0 33 -32 -8 -36 -51 -88 -73 -88 -8 0 -27 10 -42 23
-16 12 -40 30 -53 39 -25 18 -43 73 -39 116 2 13 -1 22 -5 20 -4 -2 -20 -10
-35 -17 -38 -19 -51 -11 -83 58 -44 93 -154 172 -180 130 -4 -5 -18 -14 -32
-20 -21 -8 -24 -13 -18 -40 4 -17 13 -42 21 -57 13 -25 12 -29 -11 -49 -33
-29 -43 -29 -57 1 -15 34 -101 69 -208 86 -30 5 -70 12 -87 16 l-33 7 0 -311
c0 -297 1 -313 21 -352 21 -41 22 -57 3 -177 -6 -41 -5 -43 19 -43 31 0 43
-15 52 -62 6 -30 4 -39 -9 -44 -10 -4 -25 1 -36 11 -11 10 -26 15 -35 12 -13
-6 -15 -116 -15 -1012 l0 -1005 44 0 c52 0 76 -20 55 -46 -10 -12 -24 -15 -56
-10 l-43 6 0 -465 0 -465 26 0 c18 0 28 6 31 20 4 13 11 19 22 16 57 -17 71
-18 77 -2 3 9 22 20 43 25 128 34 131 35 131 54 0 11 4 15 11 11 8 -5 10 0 6
17 -3 13 -11 50 -18 82 -7 32 -15 53 -19 47 -4 -6 -21 -12 -38 -13 -18 -1 -32
-5 -32 -9 0 -5 -9 -8 -19 -8 -14 0 -18 5 -14 21 3 11 11 18 18 15 15 -5 18 43
3 61 -11 14 -1 36 12 28 5 -3 12 0 16 6 4 8 9 7 15 -2 7 -12 9 -12 9 0 0 8 8
19 17 26 15 11 15 18 3 74 -14 68 -22 78 -40 56 -7 -8 -16 -13 -20 -10 -5 3
-11 -4 -15 -14 -8 -27 -42 -36 -71 -20 -27 14 -31 42 -12 86 6 15 10 35 9 43
-1 11 1 12 6 3 7 -10 78 -32 106 -33 4 0 7 20 7 45 0 49 -4 53 -32 28 -15 -14
-23 -15 -38 -6 -14 10 -21 9 -30 -2 -7 -8 -16 -15 -19 -15 -9 0 -51 100 -51
122 0 9 -5 29 -12 43 -18 39 3 53 40 27 16 -12 32 -19 36 -15 3 3 6 -6 6 -20
0 -23 4 -27 30 -27 21 0 30 5 30 16 0 8 5 12 11 8 12 -7 5 55 -12 111 -5 17
-11 71 -14 120 -2 50 -7 140 -10 200 -3 61 -12 155 -20 210 -23 169 -28 434
-11 559 9 60 20 114 25 120 5 6 11 36 13 66 5 58 52 246 67 264 5 6 18 41 29
78 21 73 152 276 228 355 51 53 90 59 92 14 1 -40 49 -132 73 -138 10 -3 19
-9 19 -14 0 -5 7 -9 17 -9 9 0 40 -12 70 -26 47 -22 58 -24 89 -14 20 7 31 16
27 23 -4 7 0 8 11 4 10 -4 25 -7 34 -7 14 0 15 -2 2 -10 -11 -7 -4 -17 34 -51
54 -47 93 -119 66 -119 -5 0 -10 7 -10 15 0 8 -4 15 -10 15 -5 0 -10 6 -10 13
0 7 -16 29 -35 47 -29 28 -38 32 -45 20 -5 -9 -5 -19 2 -27 8 -11 7 -12 -7 -6
-15 5 -17 3 -12 -11 4 -10 7 -22 7 -27 0 -5 13 -9 29 -9 16 0 42 -10 58 -23
15 -13 44 -33 63 -44 44 -27 96 -81 87 -90 -4 -4 -13 -1 -19 5 -20 20 -32 13
-14 -7 9 -10 16 -22 14 -27 -1 -5 6 -26 16 -47 10 -21 16 -40 13 -44 -3 -3 26
-27 66 -53 67 -44 126 -101 146 -139 15 -28 109 -314 121 -364 13 -61 46 -316
59 -467 6 -64 18 -164 26 -223 15 -105 18 -144 30 -317 3 -47 13 -159 22 -250
13 -134 14 -181 4 -251 -6 -47 -11 -121 -11 -162 0 -70 -2 -78 -24 -93 -37
-24 -120 -41 -231 -48 -55 -4 -104 -11 -109 -16 -10 -10 31 -85 69 -126 13
-14 27 -35 30 -45 4 -11 9 -19 13 -19 4 0 23 -10 42 -22 39 -25 123 -59 218
-89 58 -19 65 -19 88 -5 23 16 24 15 39 -20 8 -20 15 -39 15 -41 0 -3 16 -45
36 -95 36 -88 41 -126 9 -71 -15 26 -14 16 2 -23 5 -15 3 -15 -20 1 -15 9 -27
22 -27 27 0 5 -4 7 -9 4 -5 -3 -28 4 -51 16 l-42 23 -18 -23 c-21 -26 -36 -28
-57 -7 -10 11 -32 16 -67 15 -28 -1 -67 2 -86 5 -23 4 -45 1 -64 -8 -28 -15
-49 -13 -73 5 -7 6 -19 5 -32 -1 -34 -19 -60 -13 -67 13 -9 35 -39 38 -192 18
l-134 -18 -19 24 c-26 34 -24 47 8 50 31 2 43 16 36 43 -6 23 -26 24 -57 4
-21 -14 -23 -13 -45 25 -22 39 -22 40 -4 65 20 27 39 32 46 13 3 -7 6 33 6 88
1 117 -2 114 110 114 l64 0 -28 -26 c-21 -19 -35 -24 -60 -21 -39 5 -55 -7
-55 -43 0 -14 4 -20 8 -15 16 22 76 15 107 -11 31 -27 29 -27 132 -6 53 11
121 77 94 92 -14 8 -14 9 2 10 9 0 17 6 17 13 1 7 6 5 14 -6 20 -26 29 -20 10
8 -9 14 -20 22 -25 19 -5 -3 -9 -2 -9 3 0 4 -7 16 -14 26 -16 21 -50 12 -41
-11 4 -12 3 -13 -9 -2 -9 6 -21 10 -28 7 -9 -4 -8 -6 3 -6 9 -1 19 -10 22 -21
4 -17 0 -20 -23 -20 -16 0 -31 -6 -34 -12 -5 -10 -7 -10 -12 -1 -3 7 -13 9
-22 6 -15 -4 -15 -3 -2 6 8 6 24 11 35 12 11 0 14 3 8 6 -7 2 -13 10 -13 18 0
7 -23 33 -51 59 -28 25 -47 51 -44 57 4 6 -7 36 -23 67 -17 31 -33 73 -36 92
-3 19 -8 51 -11 70 -26 154 -31 267 -20 455 8 120 -6 314 -27 382 -5 18 -11
79 -13 135 -2 73 -10 121 -25 163 -19 54 -21 72 -14 180 3 66 13 140 20 165
20 64 18 75 -21 138 -19 32 -37 72 -40 91 -8 44 -22 71 -39 71 -8 0 -28 16
-45 35 -28 32 -31 43 -32 103 -3 144 2 172 28 146 31 -31 44 -63 31 -83 -8
-14 -6 -22 15 -43 14 -14 29 -42 33 -63 3 -20 12 -39 20 -42 7 -2 10 -11 7
-19 -3 -8 0 -14 6 -14 8 0 11 21 9 65 -3 63 -4 66 -26 60 -20 -5 -22 -4 -10 9
7 8 18 13 23 13 6 -1 8 9 7 23 -5 29 -6 31 -24 34 -23 4 -58 26 -58 38 0 6 11
3 25 -6 14 -9 25 -14 25 -11 0 12 -25 31 -57 44 -18 7 -33 16 -33 20 0 4 -9 7
-20 8 -11 1 -20 -2 -20 -7 0 -5 -7 -6 -17 -3 -12 5 -14 3 -7 -8 13 -22 18 -49
18 -109 1 -50 -1 -55 -19 -52 -19 4 -19 3 2 -16 13 -11 23 -27 23 -36 0 -13
-7 -9 -26 13 -14 17 -30 29 -34 26 -5 -3 -11 1 -14 7 -3 7 -4 1 -3 -14 2 -15
6 -30 10 -34 3 -4 2 -15 -4 -25 -7 -14 -6 -19 4 -19 17 0 30 -40 14 -40 -7 0
-4 -7 7 -15 10 -8 16 -21 13 -29 -4 -9 -2 -18 4 -21 5 -4 4 -12 -3 -20 -47
-53 -48 -55 -5 -55 33 0 33 -1 33 -46 1 -28 6 -49 15 -55 10 -6 7 -9 -13 -9
-20 0 -26 4 -22 15 4 9 0 15 -10 15 -9 0 -16 -4 -16 -9 0 -5 -3 -16 -6 -24 -4
-11 3 -17 23 -20 26 -4 26 -5 7 -11 -16 -6 -20 -13 -16 -29 5 -20 5 -20 14 2
9 25 33 24 33 -3 0 -9 7 -21 15 -26 12 -8 9 -10 -12 -10 -21 0 -28 -5 -28 -20
0 -11 5 -20 11 -20 5 0 7 -4 4 -10 -3 -5 1 -10 9 -10 9 0 16 -4 16 -10 0 -5 7
-10 15 -10 8 0 15 -4 15 -10 0 -5 6 -10 14 -10 8 0 14 -10 14 -25 0 -14 -3
-25 -7 -25 -10 0 -65 36 -88 59 -12 11 -27 21 -34 21 -6 0 -8 7 -5 16 5 13 4
14 -7 6 -10 -8 -25 -5 -62 13 -56 29 -84 33 -66 11 8 -10 9 -16 1 -21 -14 -9
-13 -25 3 -25 9 0 14 -12 14 -31 0 -18 7 -37 16 -44 11 -8 15 -23 14 -48 -2
-21 0 -37 5 -37 4 0 7 -3 6 -7 -3 -15 14 -43 23 -37 5 3 9 0 9 -5 0 -6 -6 -11
-13 -11 -7 0 -18 -9 -24 -19 -10 -16 -9 -20 3 -25 12 -4 12 -9 3 -25 -10 -15
-10 -26 1 -50 7 -17 17 -31 22 -31 5 0 3 -10 -3 -22 -8 -15 -8 -23 -1 -26 6
-2 8 -19 5 -41 -4 -25 0 -42 10 -52 13 -14 13 -17 -7 -29 -21 -13 -21 -14 9
-26 16 -6 30 -18 31 -25 2 -26 16 -59 25 -59 5 0 9 -4 9 -10 0 -5 -8 -7 -18
-3 -11 4 -8 -4 11 -21 15 -15 27 -29 27 -32 0 -15 -22 -44 -34 -44 -7 0 -18
-11 -24 -24 -8 -19 -8 -25 3 -30 8 -3 17 -1 20 4 4 6 20 10 36 10 27 0 29 -2
19 -21 -7 -11 -9 -32 -6 -45 7 -27 -15 -88 -37 -100 -7 -5 -17 -24 -20 -42 -4
-21 -3 -31 3 -27 6 3 10 1 10 -4 0 -6 10 -11 22 -11 l21 0 -23 25 c-19 21 -21
25 -7 25 9 0 17 5 17 10 0 6 5 10 10 10 6 0 10 -8 10 -19 0 -21 23 -45 33 -34
4 3 7 1 7 -5 0 -6 -5 -14 -10 -17 -6 -3 -10 -24 -10 -46 0 -32 -4 -41 -23 -49
-20 -8 -20 -9 -2 -10 15 0 17 -2 6 -9 -11 -7 -11 -9 0 -14 8 -3 5 -6 -8 -6
-21 -1 -44 -21 -24 -21 6 0 11 -7 11 -15 0 -9 7 -18 15 -22 14 -5 14 -7 0 -23
-13 -14 -13 -19 -3 -22 10 -4 9 -11 -5 -31 -10 -15 -14 -27 -10 -27 5 0 1 -5
-7 -11 -12 -8 -9 -10 13 -6 21 3 27 0 27 -14 0 -11 -4 -19 -10 -19 -5 0 -10
-6 -10 -14 0 -8 -6 -16 -12 -18 -7 -3 6 -8 30 -11 42 -7 53 -22 30 -45 -9 -9
-9 -12 -1 -12 7 0 13 -10 15 -22 2 -18 10 -23 35 -23 18 -1 35 -4 39 -8 4 -4
-7 -7 -24 -7 -19 0 -39 -8 -52 -22 -22 -24 -22 -25 -10 -53 7 -17 9 -16 9 10
1 22 4 26 10 16 8 -12 12 -13 25 -1 9 7 19 10 23 6 3 -3 0 -6 -8 -6 -11 0 -11
-2 1 -10 13 -8 13 -10 -2 -10 -10 0 -21 -14 -28 -36 -9 -27 -15 -33 -22 -23
-6 9 -7 3 -3 -19 4 -18 3 -32 -2 -31 -4 1 -28 0 -53 -1 -43 -2 -44 -3 -17 -13
30 -12 34 -32 12 -64 -8 -11 -33 -56 -54 -99 -30 -58 -65 -104 -130 -172 -50
-52 -95 -91 -100 -88 -5 3 -11 1 -13 -4 -5 -17 -77 -24 -103 -10 -20 10 -32
10 -74 -6 l-51 -18 -25 24 -26 25 -39 -23 c-21 -12 -48 -22 -59 -22 -21 0 -21
-4 -21 -375 l0 -375 1901 0 1902 0 -6 298 c-4 239 -8 306 -21 342 -14 36 -14
50 -5 73 10 22 8 40 -6 93 -32 118 3 301 64 333 12 7 21 9 21 5 0 -3 17 17 38
44 21 28 50 61 66 73 18 14 26 28 23 41 -6 22 18 49 37 42 7 -3 24 12 39 34
89 135 293 355 445 480 28 23 42 42 42 59 0 40 25 87 64 116 32 25 36 33 36
72 0 37 5 47 29 64 21 15 28 28 27 53 -1 30 -4 33 -60 49 -75 23 -87 34 -58
55 16 11 21 22 17 35 -11 32 9 21 69 -38 32 -32 62 -58 66 -58 5 0 12 -3 16
-8 4 -4 13 -7 21 -7 10 0 9 8 -4 35 -9 19 -20 35 -24 35 -3 0 -12 13 -19 30
-7 17 -16 30 -21 30 -5 0 -9 11 -9 24 0 14 -4 28 -10 31 -5 3 -10 40 -10 80 0
41 -6 94 -14 117 -9 28 -13 78 -11 143 2 85 -1 109 -20 155 -16 39 -24 85 -29
162 -6 109 -19 179 -43 235 -17 41 -27 115 -19 146 4 16 17 29 36 35 27 10 30
15 30 56 0 25 5 48 11 51 5 4 9 19 7 33 -2 22 2 28 20 30 14 2 22 -2 22 -11 0
-7 11 -24 25 -37 29 -27 32 -20 9 16 -14 21 -15 29 -4 49 10 19 11 30 2 50
-17 38 -17 38 41 31 58 -8 75 -9 97 -7 13 1 13 2 0 11 -13 8 -13 10 2 10 20 0
78 -32 78 -43 0 -4 12 -12 27 -18 l28 -10 -25 -19 c-14 -11 -20 -20 -15 -20
16 0 36 16 38 31 2 8 22 34 46 59 24 25 53 65 66 90 26 51 179 214 196 208 15
-5 59 -123 59 -157 0 -14 -4 -33 -10 -41 -7 -12 -12 -12 -35 0 -16 9 -29 10
-33 5 -4 -6 -47 -30 -97 -55 -71 -36 -107 -62 -172 -127 -46 -45 -83 -87 -83
-94 0 -13 -61 -152 -124 -279 l-41 -85 0 -120 c1 -101 5 -129 24 -180 22 -56
23 -66 13 -150 -7 -67 -6 -127 4 -235 30 -330 36 -431 30 -545 -3 -66 -7 -129
-9 -140 -2 -11 -2 -14 0 -7 3 7 12 11 21 10 12 -2 18 8 24 41 9 50 4 341 -7
441 l-8 65 31 -34 c17 -19 33 -38 35 -44 5 -17 27 2 27 24 0 10 -14 34 -31 52
-44 45 -60 71 -64 104 -9 69 -6 211 5 238 7 19 9 54 5 98 -4 37 -5 67 -1 67 3
0 17 -21 32 -46 25 -42 26 -49 15 -81 -7 -19 -10 -37 -7 -40 3 -4 6 1 6 10 0
10 7 17 15 17 8 0 15 -9 15 -19 0 -11 5 -23 11 -26 20 -13 29 -55 16 -76 -10
-17 -9 -22 7 -35 11 -8 25 -14 32 -14 7 0 17 -14 23 -31 14 -41 14 -44 -4 -29
-24 20 -19 -23 5 -45 24 -22 28 -60 5 -51 -20 7 -19 -3 6 -58 14 -32 17 -51
11 -59 -7 -8 -7 -28 -1 -57 14 -61 20 -167 13 -212 -4 -29 -10 -38 -25 -38
-11 0 -22 -6 -25 -13 -8 -21 10 -90 25 -95 10 -3 12 1 8 13 -7 18 25 69 37 58
27 -27 -30 -97 -70 -87 -19 5 -26 1 -35 -22 -14 -39 -47 -70 -55 -51 -8 22
-34 16 -40 -9 -3 -12 -2 -30 3 -39 8 -14 12 -13 34 10 13 14 43 39 66 56 38
26 43 27 51 12 6 -9 6 -29 1 -45 -9 -33 -9 -33 -9 -54 0 -8 -4 -13 -9 -10 -15
10 -91 -70 -91 -95 0 -17 -3 -20 -11 -12 -9 9 -15 8 -25 -2 -18 -17 -18 -46
-1 -70 13 -17 15 -17 30 6 10 13 17 29 17 36 0 7 5 13 11 13 7 0 9 10 7 25 -7
35 4 31 21 -6 12 -27 12 -32 0 -40 -11 -7 -12 -12 -2 -28 7 -11 10 -26 8 -33
-4 -9 7 -14 36 -16 l41 -3 -4 35 c-2 20 2 37 7 38 13 4 17 -109 4 -117 -5 -4
-9 3 -9 15 0 15 -5 20 -17 18 -13 -3 -17 -12 -16 -32 2 -24 0 -26 -13 -15 -17
14 -19 12 -52 -46 l-16 -30 -6 47 c-3 27 -11 53 -18 60 -16 16 -15 28 3 28 9
0 12 6 9 15 -5 13 -9 12 -25 -6 -10 -12 -16 -25 -13 -30 3 -5 -2 -6 -11 -3
-11 5 -14 2 -9 -12 6 -15 4 -17 -6 -7 -14 13 -17 56 -5 93 8 23 7 24 -8 11
-11 -9 -17 -10 -17 -2 0 6 -7 11 -15 11 -8 0 -15 8 -15 18 0 14 -2 15 -10 2
-12 -19 -13 -83 -1 -75 5 3 17 -9 25 -26 20 -40 20 -39 -5 -39 -19 0 -20 -5
-19 -73 1 -39 0 -90 -1 -112 -2 -37 -3 -36 -8 14 -3 30 -10 56 -16 58 -5 1
-23 -20 -40 -48 -16 -28 -40 -66 -52 -85 -27 -41 -29 -60 -7 -72 12 -7 13 -11
5 -17 -8 -4 -42 24 -93 76 -48 49 -83 79 -85 71 -3 -7 -17 -19 -31 -26 -33
-17 -71 -76 -49 -76 8 0 31 7 50 15 20 8 47 15 59 15 16 -1 3 -11 -42 -34 -96
-48 -172 -97 -200 -130 -37 -44 -53 -67 -47 -72 2 -3 40 7 83 22 44 14 106 28
139 31 l60 5 -54 -32 c-75 -45 -187 -79 -313 -96 -37 -5 -48 -3 -48 7 0 8 -14
-1 -30 -19 -17 -18 -30 -38 -30 -45 0 -20 64 -57 101 -58 23 -1 27 -3 12 -6
-27 -5 -28 -11 -9 -32 8 -9 23 -33 35 -54 18 -33 19 -38 5 -44 -17 -6 -58 11
-91 41 l-23 19 0 -35 c0 -27 6 -40 25 -52 16 -10 25 -26 25 -41 0 -22 -4 -25
-26 -21 -34 6 -43 -19 -16 -45 12 -10 25 -19 29 -19 14 0 33 -39 23 -45 -6 -4
-4 -15 5 -28 22 -32 18 -40 -11 -20 l-26 17 8 -55 c9 -61 9 -56 2 -241 l-5
-138 958 0 959 0 0 774 0 773 -74 6 c-103 9 -109 12 -91 47 10 20 25 30 51 35
28 5 34 9 23 15 -11 7 -6 17 26 50 21 22 45 40 52 40 11 0 13 150 13 793 -1
692 -3 789 -15 767 -8 -14 -15 -34 -15 -45 -1 -20 -1 -20 -15 -1 -8 11 -15 30
-15 42 0 12 -7 27 -15 34 -8 7 -15 20 -15 29 0 9 -9 31 -20 49 -27 43 -25 51
9 50 27 -1 57 -30 47 -47 -5 -7 34 -31 49 -31 3 0 5 150 5 333 l0 332 -27 3
c-16 2 -47 4 -70 5 -24 1 -43 4 -43 8 0 3 20 27 44 53 38 42 46 47 64 37 11
-6 23 -11 26 -11 3 0 6 36 6 80 0 44 -3 80 -6 80 -3 0 -22 -13 -42 -28 -37
-28 -94 -52 -124 -52 -9 0 -21 -7 -29 -16 -19 -23 -85 -54 -116 -54 l-27 0 22
16 c12 8 20 19 17 24 -7 11 13 25 53 38 19 7 42 23 53 36 11 14 29 26 41 28
13 2 32 20 48 48 22 38 33 47 68 54 l42 10 0 198 c0 187 -1 198 -20 208 -12 7
-22 25 -26 50 -7 42 -26 66 -44 55 -5 -3 -10 -15 -10 -26 0 -32 -19 -59 -41
-59 -14 0 -26 13 -39 43 -11 23 -23 46 -27 51 -8 8 -9 13 -12 74 0 17 -5 32
-11 32 -17 0 -50 -39 -50 -60 0 -13 7 -20 20 -20 24 0 27 -15 4 -24 -8 -3 -13
-10 -9 -16 13 -20 -76 -29 -100 -10 -6 5 -42 10 -80 12 l-70 3 -23 50 c-30 62
-26 59 -51 44 -17 -12 -23 -10 -44 9 -36 34 -82 29 -120 -13 -17 -19 -34 -35
-37 -35 -10 0 -30 48 -30 70 0 13 -14 26 -42 40 -54 26 -62 25 -93 -6 -17 -17
-34 -24 -53 -22 -33 4 -40 33 -18 77 15 29 15 31 -5 41 -16 9 -25 8 -40 -6
-10 -9 -19 -23 -19 -29 0 -18 -27 -26 -57 -19 -26 7 -26 6 -20 -38 6 -40 4
-46 -16 -55 -12 -5 -50 -8 -84 -7 -54 2 -67 7 -95 33 -18 17 -43 31 -56 31
-12 0 -40 12 -62 26 -21 14 -58 30 -81 35 -23 6 -53 21 -66 36 -19 20 -31 24
-56 20 -30 -4 -65 6 -77 23 -3 4 -30 15 -60 25 -48 15 -152 58 -245 100 -16 8
-50 19 -75 25 -94 24 -197 63 -245 94 -27 18 -66 38 -85 46 -19 7 -40 17 -46
22 -7 5 -14 3 -18 -7 -6 -17 48 -85 68 -85 28 0 46 -36 46 -91 0 -47 3 -56 23
-64 12 -6 24 -21 25 -34 4 -23 2 -24 -37 -18 -23 3 -41 1 -41 -4 0 -6 -15 -16
-34 -24 -27 -11 -41 -12 -66 -4 -17 6 -47 9 -66 6 -19 -3 -34 -2 -34 3 0 20
-51 22 -100 4 -51 -18 -51 -18 -93 4 -38 20 -52 22 -132 16 -50 -3 -114 -12
-143 -19 -46 -12 -58 -11 -90 2 -20 8 -49 28 -65 44 -31 33 -44 35 -76 13 -15
-11 -33 -14 -53 -10 -32 6 -68 -8 -68 -27 0 -7 6 -23 13 -37 23 -44 26 -68 10
-82 -12 -10 -17 -9 -24 5 -6 9 -19 17 -29 17 -18 0 -20 -7 -20 -66 0 -63 1
-66 29 -77 26 -10 29 -15 27 -56 -1 -31 -6 -48 -16 -52 -9 -4 -17 -20 -18 -37
-2 -25 2 -31 20 -34 13 -2 24 -13 29 -28 3 -14 15 -54 25 -90 9 -36 25 -72 35
-80 23 -19 45 -113 29 -118 -6 -2 -15 -14 -20 -27 -9 -24 1 -64 39 -162 l20
-52 -27 -28 c-61 -61 -73 -67 -142 -66 -59 1 -204 32 -233 50 -7 4 -28 8 -47
10 -19 1 -47 5 -62 8 -20 5 -28 4 -28 -6 -1 -32 -90 -99 -90 -68 0 17 44 59
62 59 15 0 18 9 18 60 0 70 -20 127 -69 194 -19 27 -36 56 -38 64 -1 9 -14 26
-28 40 -23 21 -26 29 -20 66 8 50 25 107 36 121 4 6 6 34 3 63 -4 50 9 72 20
35 4 -14 4 -13 3 2 -2 14 -9 19 -26 17 -22 -2 -95 41 -120 72 -11 13 -11 20 3
41 20 31 72 58 97 52 23 -6 49 36 49 80 1 40 41 67 89 59 27 -4 45 0 70 15 35
21 71 18 71 -7 0 -17 19 -17 120 0 l75 12 -3 45 c-4 60 -22 77 -65 61 -40 -14
-94 -16 -102 -2 -3 5 -7 36 -10 69 -3 49 0 62 16 77 24 22 24 66 0 88 -26 24
-129 27 -136 5z m-365 -200 c0 -24 46 -26 71 -4 38 35 93 -7 97 -74 3 -40 -12
-61 -44 -61 -13 0 -38 -12 -56 -27 -26 -23 -41 -27 -74 -25 -32 2 -43 8 -47
23 -3 10 -1 22 4 25 23 14 8 34 -26 34 -32 0 -35 2 -35 30 0 21 8 36 30 52 17
12 30 27 30 33 0 6 5 16 12 23 15 15 38 -3 38 -29z m1380 -188 c0 -44 -71 -67
-121 -41 -45 25 -6 59 69 60 45 0 52 -3 52 -19z m-293 -7 c2 -6 -6 -15 -19
-18 l-23 -7 23 -9 c13 -6 20 -15 16 -21 -3 -6 -1 -15 6 -19 9 -6 -4 -18 -43
-39 -30 -18 -58 -38 -61 -46 -3 -8 -13 -15 -22 -15 -13 0 -14 3 -5 14 7 8 11
20 10 28 -6 27 11 63 33 73 14 6 24 19 25 35 0 14 1 29 2 33 1 12 54 4 58 -9z
m-2442 -33 c3 -16 13 -35 21 -42 16 -13 19 -75 4 -84 -12 -7 -13 -65 -2 -80 4
-5 13 -10 20 -11 32 -3 39 -5 63 -27 14 -12 29 -35 33 -51 4 -15 16 -40 27
-55 17 -23 18 -33 10 -76 -5 -27 -6 -52 -2 -55 15 -10 21 -58 8 -68 -26 -22
-50 -18 -57 9 -4 15 -4 32 0 39 17 27 -17 42 -78 35 l-58 -7 -30 38 c-16 21
-31 47 -34 58 -3 10 -14 24 -25 30 -36 20 -85 75 -85 94 0 11 7 22 15 26 23 9
18 29 -6 23 -57 -15 -77 31 -46 102 20 46 26 51 67 60 29 6 51 6 63 -1 21 -11
40 7 58 54 13 33 25 29 34 -11z m-185 -2 c0 -12 -10 -23 -27 -30 -16 -6 -40
-22 -55 -36 l-27 -26 -7 29 c-4 16 -11 34 -16 41 -10 12 -4 15 70 27 19 3 31
2 27 -3 -3 -5 -1 -12 5 -16 6 -4 10 5 10 20 0 15 4 24 10 20 6 -3 10 -15 10
-26z m1697 8 c9 -15 -35 -44 -69 -45 -24 -1 -29 3 -26 21 5 38 75 56 95 24z
m769 -23 c-4 -14 -12 -24 -19 -21 -20 6 -20 40 -1 54 22 16 29 4 20 -33z
m-1226 16 l25 -8 -25 -1 c-99 -5 -213 -23 -226 -36 -14 -13 -13 -15 8 -15 23
-1 23 -1 -3 -15 -15 -8 -40 -14 -55 -14 -63 0 -104 -13 -104 -32 0 -17 6 -19
58 -14 31 3 51 2 45 -1 -7 -3 -13 -20 -13 -38 0 -20 -8 -40 -19 -50 -11 -10
-17 -24 -15 -31 3 -7 -17 -36 -45 -64 -41 -42 -56 -51 -85 -51 -20 0 -36 -4
-36 -9 0 -5 -9 -12 -19 -16 -13 -4 -17 -12 -14 -25 6 -23 -25 -40 -37 -20 -10
17 -27 6 -46 -32 -15 -29 -15 -31 2 -23 11 4 32 9 48 11 16 2 35 9 42 15 9 7
14 8 14 1 0 -5 -6 -15 -14 -21 -8 -7 -18 -26 -21 -42 -4 -16 -11 -29 -16 -29
-4 0 -13 -15 -18 -32 -6 -23 -9 -26 -10 -12 -1 29 -10 35 -32 23 -16 -8 -19
-6 -19 10 0 28 -17 35 -25 11 -9 -30 -27 -13 -20 19 3 15 19 54 35 86 27 54
28 61 15 81 -9 14 -11 24 -4 26 5 2 11 11 13 20 1 10 5 21 9 24 4 4 7 16 7 27
0 13 -5 17 -15 13 -9 -3 -15 0 -15 8 0 8 -7 17 -16 20 -20 8 -8 26 17 26 20 0
23 4 33 52 4 19 16 30 41 39 32 12 34 14 19 31 -24 25 -11 63 27 78 40 17 80
4 97 -34 13 -26 17 -28 60 -21 25 4 70 18 99 32 74 33 200 50 253 33z m97 -16
c-3 -3 -12 -4 -19 -1 -8 3 -5 6 6 6 11 1 17 -2 13 -5z m973 -32 c0 -5 9 -19
20 -32 22 -26 18 -40 -11 -40 -16 0 -19 5 -14 20 4 13 1 22 -9 26 -20 8 -21
34 -1 34 8 0 15 -4 15 -8z m2404 -101 c10 -11 28 -22 41 -25 25 -6 41 -38 30
-57 -5 -7 -14 -4 -29 9 -11 11 -34 23 -51 26 -38 10 -55 24 -55 47 0 25 41 25
64 0z m-359 -21 c-11 -5 -32 -11 -47 -14 -16 -4 -27 -10 -26 -14 5 -16 -24
-52 -42 -52 -11 0 -19 -3 -19 -7 4 -27 -7 -42 -51 -71 -27 -18 -54 -41 -60
-52 -13 -24 2 -27 20 -4 17 20 55 41 45 24 -5 -8 -1 -11 11 -8 36 7 43 -15 12
-40 -15 -13 -28 -31 -28 -40 0 -8 -7 -24 -17 -34 -22 -24 -12 -33 13 -10 10 9
31 18 47 20 22 3 27 0 27 -20 0 -30 10 -44 37 -52 13 -4 26 -18 29 -30 5 -19
12 -23 45 -23 49 0 57 -8 36 -31 -10 -10 -17 -22 -17 -26 0 -8 59 21 83 42 9
8 18 11 18 6 6 -46 23 -109 35 -133 19 -35 18 -41 -12 -72 l-26 -27 36 -68
c38 -72 45 -117 21 -147 -18 -24 -9 -47 18 -47 41 0 1 -20 -61 -32 -77 -14
-86 -7 -73 50 13 62 -14 52 -88 -30 l-23 -27 27 -26 c25 -22 30 -23 44 -11 24
22 115 24 135 3 10 -9 14 -21 11 -27 -3 -5 0 -10 7 -10 8 0 22 -9 31 -21 10
-11 25 -18 32 -15 21 8 28 -10 11 -27 -15 -14 -12 -27 6 -27 4 0 20 14 35 30
14 17 29 28 31 25 7 -6 -67 -75 -80 -75 -5 0 -6 5 -3 10 9 14 -12 12 -44 -5
-37 -18 -76 -8 -140 39 -27 19 -62 41 -78 49 -56 30 -101 80 -120 137 -11 33
-24 55 -33 56 -8 1 -22 2 -31 2 -9 1 -22 16 -30 33 -11 28 -10 33 4 44 16 11
16 18 3 75 -13 56 -13 65 1 86 8 13 22 24 30 24 8 0 28 11 45 25 16 14 38 25
49 25 12 0 17 4 14 11 -4 6 -13 8 -21 5 -26 -10 -2 24 37 53 31 22 36 31 26
39 -9 8 -25 3 -60 -20 -26 -17 -50 -28 -54 -25 -3 3 4 22 16 42 29 49 16 75
-39 75 -30 0 -40 -4 -45 -21 -4 -11 -9 -18 -11 -16 -3 3 6 32 19 65 l25 61
-40 -21 c-21 -11 -51 -36 -66 -54 -33 -41 -45 -44 -31 -6 6 15 6 23 1 17 -16
-18 -42 -95 -43 -128 0 -17 -6 -50 -13 -72 l-13 -40 -12 30 c-10 24 -10 41 0
85 6 30 13 66 14 80 6 70 89 193 162 242 32 21 62 38 66 38 4 0 24 16 44 35
20 19 39 35 43 35 4 0 12 11 18 25 10 21 18 25 54 24 33 0 38 -2 23 -9z
m-1439 -51 c6 -5 14 -26 17 -46 4 -20 17 -48 30 -62 36 -40 50 -84 43 -136 -4
-25 -10 -45 -14 -45 -4 0 -18 -16 -31 -35 -13 -19 -30 -35 -37 -35 -18 0 -17
-17 0 -110 20 -101 22 -180 7 -208 -11 -20 -18 -23 -47 -17 -25 4 -34 2 -32
-6 4 -18 -33 -24 -43 -7 -5 7 -7 20 -5 28 3 8 7 29 11 47 l6 32 -38 -12 c-21
-6 -41 -15 -44 -20 -4 -5 -13 -7 -20 -5 -9 3 -14 22 -15 57 -1 42 -7 58 -28
80 -29 30 -26 41 14 41 35 0 44 -10 22 -26 -16 -12 -15 -13 4 -14 49 0 84 12
84 31 0 11 5 19 12 19 23 0 58 52 58 85 0 41 -9 49 -29 25 -12 -15 -33 -21
-81 -24 -36 -2 -78 -9 -95 -16 l-30 -12 25 -13 25 -13 -29 -12 c-25 -9 -32 -8
-53 11 -13 13 -37 48 -55 78 -17 31 -40 62 -50 69 -11 8 -18 23 -16 35 1 12
-1 27 -4 33 -13 19 -2 59 30 108 17 27 33 52 34 55 6 15 117 45 188 52 85 8
169 2 186 -12z m-566 1 c0 -5 -12 -10 -27 -9 l-28 1 25 8 c14 4 26 8 28 9 1 1
2 -3 2 -9z m2130 -20 c0 -5 6 -10 14 -10 21 0 27 -27 10 -41 -13 -11 -12 -14
8 -25 22 -13 23 -13 2 -14 -22 0 -109 78 -99 88 3 3 11 0 17 -6 17 -17 41 -15
34 3 -3 8 -1 15 4 15 6 0 10 -4 10 -10z m-2200 -15 c0 -8 -4 -15 -10 -15 -5 0
-10 7 -10 15 0 8 5 15 10 15 6 0 10 -7 10 -15z m-1800 -108 c0 -10 -5 -17 -12
-15 -20 7 -51 55 -43 68 10 16 55 -27 55 -53z m3975 26 c0 -14 -6 -28 -12 -31
-7 -2 -13 -10 -13 -18 0 -16 -16 -19 -25 -4 -4 6 -10 8 -15 5 -5 -3 -12 -1
-15 5 -4 6 -3 9 2 8 4 -1 18 1 31 6 24 8 28 26 10 44 -9 9 -6 12 13 12 20 0
25 -5 24 -27z m-3435 -13 c0 -16 -4 -30 -10 -30 -5 0 -10 -5 -10 -11 0 -5 5
-7 12 -3 7 5 8 3 3 -6 -5 -7 -9 -25 -10 -40 -2 -15 -7 -36 -13 -46 -11 -18
-11 -18 -12 3 0 12 5 25 10 28 13 8 13 35 1 35 -5 0 -12 -8 -16 -19 -3 -10
-14 -29 -25 -41 -20 -24 -27 -60 -11 -60 15 0 -14 -68 -40 -92 -13 -13 -39
-53 -58 -90 -18 -37 -37 -65 -42 -63 -4 3 -6 11 -4 18 9 30 14 97 8 96 -5 -1
-29 -1 -54 0 -47 1 -47 1 -47 36 0 29 3 33 17 26 9 -5 24 -19 34 -30 l17 -21
30 22 c33 24 40 48 14 48 -12 0 -14 4 -7 13 5 6 10 22 11 35 0 13 13 39 27 58
28 37 65 62 65 44 0 -5 5 -10 10 -10 6 0 10 6 10 14 0 8 5 18 12 22 7 5 9 2 4
-7 -4 -8 2 -3 13 11 11 14 26 40 32 58 13 40 29 42 29 2z m-108 -32 c-7 -7
-12 -8 -12 -2 0 14 12 26 19 19 2 -3 -1 -11 -7 -17z m238 -7 c0 -6 -4 -13 -10
-16 -18 -11 -11 -27 9 -20 37 11 32 -24 -8 -63 -21 -20 -50 -55 -65 -76 l-26
-39 0 32 c0 17 5 31 10 31 6 0 10 11 10 25 0 24 30 95 52 123 12 14 28 16 28
3z m-84 -24 c3 -8 -5 -39 -16 -70 -12 -32 -23 -71 -25 -87 -4 -30 -51 -119
-63 -121 -4 0 -15 -2 -24 -4 -21 -4 -24 18 -4 34 20 17 60 105 80 176 9 33 19
66 21 73 6 16 24 15 31 -1z m384 3 c0 -5 -2 -10 -4 -10 -3 0 -8 5 -11 10 -3 6
-1 10 4 10 6 0 11 -4 11 -10z m2979 -24 c12 -8 10 -11 -7 -17 -27 -10 -78 -1
-92 16 -9 11 -2 13 37 12 26 -1 54 -6 62 -11z m-4379 -16 c0 -5 -2 -10 -4 -10
-3 0 -8 5 -11 10 -3 6 -1 10 4 10 6 0 11 -4 11 -10z m1470 -107 c0 -12 -4 -25
-10 -28 -6 -3 -10 4 -10 18 0 14 -2 40 -5 58 l-5 34 14 -30 c9 -16 15 -40 16
-52z m-1342 -105 c-6 -11 -20 -18 -38 -18 -17 0 -30 2 -30 4 0 15 14 36 24 36
7 0 19 19 27 43 l13 42 6 -45 c3 -25 2 -53 -2 -62z m542 88 c0 -2 -7 -7 -16
-10 -8 -3 -12 -2 -9 4 6 10 25 14 25 6z m-381 -15 c22 -14 4 -51 -25 -51 -38
0 -33 54 6 59 3 0 11 -3 19 -8z m949 -13 c-5 -16 -48 -24 -48 -10 0 11 17 20
38 21 8 1 12 -5 10 -11z m2132 -30 c11 -18 20 -46 20 -63 0 -36 35 -177 50
-206 6 -11 8 -30 5 -42 -4 -14 -3 -18 3 -9 6 9 12 2 20 -25 6 -21 27 -65 47
-97 41 -69 35 -85 -21 -59 -48 22 -64 41 -62 73 0 14 -4 45 -10 69 -6 25 -9
48 -7 51 2 3 -10 12 -26 19 -20 9 -29 20 -29 36 0 13 -4 26 -9 30 -6 3 -10 23
-9 44 0 21 -4 47 -9 57 -12 23 -5 154 8 154 5 0 18 -15 29 -32z m-2835 -233
c8 -19 8 -19 -8 -3 -9 9 -18 30 -19 47 -2 25 -5 28 -17 18 -12 -10 -14 -9 -8
5 3 9 12 36 19 60 l12 43 6 -75 c4 -41 10 -84 15 -95z m718 152 c3 -8 -4 -39
-14 -71 -11 -32 -17 -66 -14 -76 3 -9 1 -29 -4 -44 -8 -20 -17 -26 -40 -26
-15 0 -34 -7 -41 -15 -7 -8 -19 -15 -28 -15 -8 0 -20 -8 -27 -17 -12 -16 -14
-16 -29 -1 -9 9 -16 20 -16 24 0 5 -12 18 -27 31 l-28 22 31 1 c54 0 96 12
101 29 2 9 8 23 13 32 4 8 6 26 4 40 -4 19 2 27 28 39 18 8 33 21 33 28 0 26
49 42 58 19z m-553 -7 c0 -5 -5 -10 -11 -10 -5 0 -7 5 -4 10 3 6 8 10 11 10 2
0 4 -4 4 -10z m-70 -10 c8 13 11 11 16 -7 4 -13 9 -23 13 -23 3 0 7 -21 7 -47
2 -51 -9 -40 -21 22 -4 22 -10 34 -12 28 -3 -7 3 -37 11 -67 18 -62 20 -77 6
-56 -9 13 -11 13 -20 0 -7 -11 -10 -7 -11 20 0 28 -2 31 -9 15 -7 -18 -8 -17
-13 10 -3 21 -4 18 -2 -7 4 -45 -12 -60 -21 -23 -8 32 2 99 16 103 5 2 10 13
10 25 0 18 2 19 10 7 9 -13 11 -13 20 0z m398 -46 c4 -36 -35 -90 -77 -105
-33 -13 -51 10 -51 63 0 32 5 41 33 58 18 12 45 19 62 18 26 -3 30 -8 33 -34z
m2072 26 c0 -5 0 -13 0 -17 0 -5 -4 -8 -9 -8 -5 0 -13 -3 -17 -7 -4 -5 -2 -8
4 -8 7 0 12 -7 12 -15 0 -22 -18 -18 -25 5 -9 27 3 60 21 60 8 0 14 -4 14 -10z
m-2395 -50 c3 -11 3 -30 0 -41 -4 -12 -3 -19 2 -16 5 3 15 -10 22 -29 8 -21
23 -39 37 -44 13 -5 24 -17 24 -26 0 -10 3 -14 6 -11 12 12 49 -47 51 -81 2
-28 0 -32 -13 -22 -7 7 -14 20 -15 29 0 9 -3 11 -5 5 -3 -6 4 -34 15 -63 12
-28 19 -51 16 -51 -2 0 -18 26 -35 58 -28 54 -33 58 -60 54 -35 -5 -73 24 -50
38 11 7 9 13 -11 29 l-24 20 23 21 c17 16 22 28 17 44 -4 11 -9 35 -10 53 -2
17 -6 36 -10 42 -3 6 -2 11 4 11 5 0 13 -9 16 -20z m131 -76 c12 5 12 2 2 -17
-16 -29 -11 -55 16 -92 12 -16 26 -37 31 -45 19 -33 -28 15 -51 52 -18 28 -24
50 -23 90 1 29 4 43 6 30 3 -16 10 -22 19 -18z m665 -55 c5 -3 7 -13 4 -22 -8
-19 -36 -31 -44 -19 -3 5 -13 8 -21 7 -17 -3 -25 31 -9 40 5 4 9 16 10 28 1
20 2 20 8 -3 7 -24 8 -23 22 14 l14 40 3 -40 c2 -21 8 -41 13 -45z m-1116 24
c-4 -25 -3 -33 3 -25 7 11 11 8 15 -9 4 -13 4 -25 2 -28 -3 -2 -5 1 -5 8 0 7
-4 10 -9 6 -11 -6 -35 61 -26 75 14 23 26 8 20 -27z m500 -10 c9 -20 13 -43
11 -50 -10 -24 43 -28 68 -4 30 28 38 27 74 -10 32 -33 46 -65 31 -75 -5 -3
-9 -20 -9 -38 0 -63 -40 -70 -97 -18 -56 51 -156 224 -114 198 7 -5 11 0 11
13 0 31 8 26 25 -16z m2465 -10 c0 -7 -4 -13 -10 -13 -5 0 -10 12 -10 28 0 21
2 24 10 12 5 -8 10 -21 10 -27z m1307 -12 c-11 -67 -29 -78 -69 -43 -37 31 -9
70 50 71 20 1 23 -3 19 -28z m-1299 -53 c16 -16 15 -55 0 -61 -8 -2 -1 -14 20
-31 17 -15 32 -37 32 -47 0 -19 -4 -18 -54 10 -38 20 -56 26 -60 18 -6 -14 3
79 11 106 5 20 33 23 51 5z m1982 2 c0 -5 -5 -10 -11 -10 -5 0 -7 5 -4 10 3 6
8 10 11 10 2 0 4 -4 4 -10z m-3923 -22 c-3 -8 -6 -5 -6 6 -1 11 2 17 5 13 3
-3 4 -12 1 -19z m3653 7 c8 -9 31 -15 59 -16 37 -1 41 -2 21 -9 -31 -9 -152
-2 -163 9 -16 16 3 31 37 31 19 0 39 -7 46 -15z m87 -1 c-3 -3 -12 -4 -19 -1
-8 3 -5 6 6 6 11 1 17 -2 13 -5z m123 -14 c11 -7 -1 -10 -40 -10 -39 0 -51 3
-40 10 8 5 26 10 40 10 14 0 32 -5 40 -10z m-2395 -30 c3 -6 14 -10 24 -10 18
0 20 -19 6 -55 -12 -27 -25 -35 -62 -35 -17 0 -35 -4 -38 -10 -3 -5 -1 -10 4
-10 6 0 11 -5 11 -11 0 -16 22 -35 55 -46 38 -12 43 -30 11 -44 -14 -7 -26
-15 -26 -19 0 -4 -21 -13 -47 -19 -42 -11 -49 -10 -60 5 -16 21 -17 90 -2 99
12 8 31 51 34 78 1 9 10 23 20 31 10 7 15 18 11 24 -4 7 -5 15 -2 20 7 11 54
13 61 2z m2625 -70 c0 -5 -6 -10 -14 -10 -8 0 -18 5 -21 10 -3 6 3 10 14 10
12 0 21 -4 21 -10z m-1862 -12 c13 -13 16 -50 6 -61 -8 -8 -57 11 -66 26 -12
19 -9 27 15 37 30 12 31 12 45 -2z m482 -39 c0 -11 -4 -17 -10 -14 -5 3 -10
15 -10 26 0 11 5 17 10 14 6 -3 10 -15 10 -26z m1406 -51 c-4 -24 -7 -53 -7
-65 -1 -31 -14 -29 -28 5 -10 24 -9 35 5 65 24 50 38 47 30 -5z m-307 3 c9 -6
10 -11 2 -15 -6 -4 -16 -4 -23 0 -7 4 -8 3 -4 -4 5 -9 -7 -12 -42 -12 -45 0
-50 2 -45 20 4 16 14 20 52 20 25 0 52 -4 60 -9z m-3794 -23 c4 4 6 -5 3 -20
-4 -20 -1 -25 10 -21 12 5 12 2 3 -18 -11 -22 -10 -22 13 4 29 31 33 26 11
-13 -27 -46 -15 -44 16 4 38 57 51 55 15 -3 -26 -40 -70 -71 -102 -71 -16 0
-16 1 -1 18 31 34 18 43 -20 15 -41 -31 -41 -32 0 64 15 34 26 48 33 42 6 -5
14 -5 19 -1z m4135 -22 c0 -3 -4 -8 -10 -11 -5 -3 -10 -1 -10 4 0 6 5 11 10
11 6 0 10 -2 10 -4z m-288 -23 c23 -25 39 -36 68 -50 24 -11 24 -12 -12 -12
-35 -1 -39 3 -37 27 0 4 -10 9 -22 12 -12 3 -23 13 -25 23 -3 22 7 22 28 0z
m-312 -2 c0 -5 -9 -11 -20 -14 -22 -6 -28 8 -7 16 19 8 27 8 27 -2z m-90 -15
c0 -5 -59 -40 -82 -49 -35 -13 -17 3 30 27 52 28 52 28 52 22z m723 -16 c-3
-12 -8 -19 -11 -16 -5 6 5 36 12 36 2 0 2 -9 -1 -20z m-3436 -59 c2 -18 -24
-37 -35 -26 -3 3 0 5 8 5 10 0 10 3 1 14 -10 11 -8 15 6 19 10 3 18 5 18 6 1
0 1 -8 2 -18z m2973 2 c0 -4 -5 -21 -12 -39 -10 -28 -9 -39 8 -73 10 -23 24
-41 31 -41 18 0 8 -58 -15 -84 -32 -37 -43 -73 -26 -86 11 -10 14 -9 14 9 0
11 5 21 10 21 16 0 24 -31 10 -40 -8 -5 -9 -10 -2 -14 6 -3 13 -2 17 4 8 13
35 13 35 0 0 -5 -7 -10 -15 -10 -8 0 -15 -4 -15 -10 0 -17 29 -11 50 10 11 11
24 20 28 20 5 0 21 14 38 31 29 30 74 59 93 59 16 0 -7 -55 -35 -81 -17 -16
-24 -33 -24 -60 0 -39 -18 -63 -42 -54 -9 4 -14 -3 -16 -19 -2 -32 -42 -94
-65 -102 -14 -4 -17 -12 -11 -36 6 -28 4 -30 -15 -25 -23 6 -27 -3 -11 -19 7
-7 8 -19 1 -37 -13 -34 -6 -34 23 0 22 25 23 26 55 10 25 -13 37 -14 57 -5 19
9 28 8 44 -7 11 -10 23 -15 27 -11 4 4 1 11 -7 16 -11 7 -11 10 -2 10 26 0 23
-30 -7 -59 -36 -36 -37 -39 -11 -43 22 -3 19 -10 -34 -87 -31 -45 -27 -72 5
-31 11 14 27 33 35 43 7 9 14 22 14 27 0 6 7 10 15 10 8 0 15 5 15 11 0 6 11
24 25 41 14 16 25 36 25 44 0 9 5 12 10 9 6 -3 10 -15 10 -25 0 -14 7 -18 27
-17 21 2 30 -5 46 -35 23 -43 19 -55 -12 -36 -16 10 -23 10 -33 0 -9 -9 -8
-16 7 -32 10 -11 22 -17 26 -14 18 11 8 -27 -11 -43 -31 -27 -36 -77 -11 -115
13 -22 21 -27 21 -16 0 9 -5 20 -10 23 -14 9 -3 25 17 25 12 0 14 -7 10 -29
-4 -20 -2 -31 8 -35 8 -3 15 -12 15 -21 0 -8 5 -15 10 -15 6 0 10 -9 10 -21 0
-11 8 -33 18 -47 35 -51 47 -109 33 -155 -24 -81 -33 -123 -40 -184 -7 -67
-28 -95 -68 -90 -11 1 -31 -7 -43 -18 -18 -16 -23 -17 -31 -5 -8 12 -9 11 -7
-5 3 -17 -3 -20 -31 -21 -43 0 -62 -24 -39 -48 15 -14 22 -11 82 36 l67 51 24
-23 c14 -13 25 -19 25 -13 0 6 -6 13 -12 16 -7 2 -9 8 -5 13 10 11 28 -17 22
-34 -3 -8 -5 -25 -5 -38 0 -15 -6 -24 -15 -24 -13 0 -15 -7 -9 -35 4 -23 2
-35 -5 -35 -6 0 -11 4 -11 8 0 14 -93 -3 -122 -22 -27 -17 -27 -19 -10 -41 15
-20 18 -21 29 -6 10 14 12 14 16 1 18 -56 16 -54 35 -36 29 25 37 19 11 -9
-13 -13 -30 -25 -36 -25 -7 0 -13 -4 -13 -10 0 -13 6 -13 31 0 35 19 33 -16
-3 -62 -90 -116 -146 -141 -249 -112 -33 9 -63 14 -66 10 -4 -3 2 -32 13 -64
11 -31 20 -69 19 -83 -1 -25 5 -29 73 -50 80 -25 83 -28 104 -120 10 -41 9
-48 -9 -66 -11 -11 -27 -22 -36 -26 -17 -6 -23 -38 -10 -51 4 -4 18 -37 29
-74 16 -48 19 -71 12 -80 -9 -10 -15 -9 -29 4 -11 10 -19 20 -19 24 0 16 -51
122 -57 117 -3 -3 2 -27 10 -52 9 -25 14 -52 10 -60 -3 -9 3 -31 12 -51 14
-30 15 -41 5 -62 -9 -21 -13 -23 -21 -11 -8 11 -15 7 -40 -21 -17 -19 -45 -52
-63 -73 -48 -55 -82 -52 -174 18 -40 30 -80 55 -88 55 -8 0 -14 5 -14 10 0 6
-6 10 -14 10 -24 0 -38 72 -17 85 5 3 15 22 22 42 7 21 23 46 36 56 28 23 29
34 3 42 -33 11 -22 24 15 18 28 -5 35 -2 35 11 0 10 10 40 21 67 22 50 49 66
49 28 0 -11 5 -17 10 -14 24 15 5 -20 -65 -115 -41 -56 -75 -105 -75 -109 0
-6 225 -174 238 -178 9 -2 92 113 92 127 0 6 -4 18 -10 28 -55 98 -102 225
-110 296 -5 43 -6 84 -3 90 4 6 8 16 9 22 1 6 5 21 9 33 5 18 2 21 -19 21
l-26 0 0 94 c0 55 4 96 10 98 6 2 13 39 16 83 3 58 10 88 25 108 11 15 17 32
14 37 -3 6 -1 10 5 10 6 0 4 10 -6 25 -11 16 -14 37 -11 62 5 43 38 136 50
141 4 2 7 12 7 23 0 13 -7 19 -24 19 -21 0 -26 7 -36 51 -7 29 -10 71 -6 100
4 27 3 55 -1 62 -9 14 -33 219 -38 325 -3 60 -10 86 -40 144 -20 41 -39 96
-44 132 -5 33 -17 77 -27 96 -19 37 -24 129 -10 185 7 27 2 37 -33 80 -22 26
-38 52 -36 56 3 3 16 9 30 11 28 6 45 -14 45 -51 0 -27 20 -27 21 -1 4 64 2
70 -27 70 -18 0 -38 12 -60 38 -32 35 -33 36 -24 9 12 -35 12 -40 0 -32 -14 9
-12 -8 3 -25 6 -8 0 -4 -16 10 -48 42 -53 12 -11 -67 37 -72 39 -102 5 -84
-29 16 -20 -57 10 -83 35 -31 54 -95 40 -137 -12 -36 -10 -126 3 -147 4 -7 2
-12 -3 -12 -6 0 -11 5 -11 11 0 7 -12 8 -32 4 -72 -14 -70 -12 -47 -57 19 -36
19 -40 4 -34 -10 3 -24 1 -32 -5 -11 -9 -17 -8 -27 7 -13 18 -15 18 -33 2 -22
-20 -42 -9 -67 41 -30 58 -9 340 31 400 12 19 17 21 24 10 6 -9 9 4 9 38 0 30
11 81 25 121 14 38 25 76 25 84 0 23 97 106 139 119 20 6 43 17 51 25 9 7 27
17 40 23 28 11 120 14 120 4z m-3033 -33 c2 -26 -12 -33 -37 -18 -29 18 -25
38 8 38 20 0 28 -5 29 -20z m3491 -2 c7 -7 12 -19 12 -27 0 -8 7 -22 15 -31 9
-10 13 -24 10 -33 -7 -16 -43 -30 -57 -21 -14 9 -9 44 7 50 13 5 13 8 0 21
-16 15 -21 53 -7 53 4 0 13 -5 20 -12z m-4672 -45 c-10 -10 -19 5 -10 18 6 11
8 11 12 0 2 -7 1 -15 -2 -18z m1410 -103 c1 -17 0 -30 -2 -30 -9 0 -24 52 -18
62 9 14 18 1 20 -32z m-2521 -1 c10 -15 -1 -23 -20 -15 -9 3 -13 10 -10 16 8
13 22 13 30 -1z m2585 -4 c-10 -12 -10 -15 1 -15 8 0 5 -6 -7 -15 -26 -19 -35
-19 -27 3 9 24 24 42 35 42 6 0 5 -7 -2 -15z m2870 -12 c-1 -20 -30 -45 -46
-39 -14 5 -13 9 7 26 25 20 39 25 39 13z m-1100 -75 c0 -25 -3 -29 -10 -18 -5
8 -10 25 -10 38 0 12 -5 22 -11 22 -5 0 -7 5 -4 10 11 18 35 -17 35 -52z
m-670 -10 c0 -6 -6 -8 -14 -5 -33 13 -117 -52 -208 -163 -15 -17 -19 -19 -15
-7 4 10 7 22 7 26 0 4 8 16 18 27 9 10 23 32 30 48 11 24 15 27 23 15 7 -12 9
-11 9 4 0 9 4 17 9 17 6 0 22 11 36 24 15 14 33 22 44 19 10 -3 22 0 25 6 8
12 36 3 36 -11z m-485 -57 c-6 -5 -28 -13 -50 -17 l-40 -7 25 20 c14 11 32 22
40 25 19 7 37 -9 25 -21z m-581 -30 c-6 -6 -24 19 -24 34 1 6 7 1 15 -9 8 -11
12 -22 9 -25z m2996 -6 c0 -8 -4 -15 -9 -15 -13 0 -22 16 -14 24 11 11 23 6
23 -9z m-1260 -26 c0 -5 -4 -9 -10 -9 -5 0 -10 7 -10 16 0 8 5 12 10 9 6 -3
10 -10 10 -16z m-1710 1 c0 -5 -4 -10 -10 -10 -5 0 -10 5 -10 10 0 6 5 10 10
10 6 0 10 -4 10 -10z m30 -20 c0 -5 -4 -10 -10 -10 -5 0 -10 5 -10 10 0 6 5
10 10 10 6 0 10 -4 10 -10z m2911 -16 c19 -17 15 -54 -7 -54 -7 0 -25 5 -40
10 l-27 11 23 24 c28 29 28 30 51 9z m-5017 -35 c-3 -5 -10 -7 -15 -3 -5 3 -7
10 -3 15 3 5 10 7 15 3 5 -3 7 -10 3 -15z m3720 -18 c3 -5 -1 -14 -9 -21 -8
-7 -12 -16 -9 -21 3 -5 0 -9 -6 -9 -6 0 -8 -5 -5 -10 4 -6 4 -18 1 -27 -5 -13
-12 -7 -27 22 -12 22 -17 41 -12 42 6 2 19 10 29 18 22 17 31 18 38 6z m1230
-24 l29 -23 -52 -1 c-54 -1 -69 16 -33 36 23 14 23 14 56 -12z m-1088 -53 c17
-41 14 -52 -10 -29 -15 15 -23 65 -10 65 3 0 12 -16 20 -36z m1244 15 c0 -11
-4 -17 -10 -14 -5 3 -10 13 -10 21 0 8 5 14 10 14 6 0 10 -9 10 -21z m-4925
-62 c17 -17 17 -19 -3 -40 -11 -13 -18 -30 -15 -42 3 -11 4 -49 4 -85 -1 -36
-1 -80 -1 -97 0 -18 -4 -33 -10 -33 -5 0 -13 0 -17 0 -5 0 -8 3 -8 8 0 4 -4
12 -8 19 -4 6 -4 18 -1 27 4 10 1 16 -7 16 -8 0 -15 11 -15 25 -1 14 2 25 7
25 6 0 5 9 -1 21 -7 11 -9 23 -6 27 3 3 6 -1 6 -9 1 -10 5 -8 15 5 20 26 19
37 -2 30 -15 -5 -15 -3 1 10 11 9 17 16 14 16 -4 0 0 12 7 27 8 15 11 30 7 33
-4 3 -13 18 -20 34 -10 22 -10 31 -1 43 10 12 14 10 24 -14 7 -16 20 -37 30
-46z m3598 10 c4 3 7 1 7 -5 0 -7 13 -33 29 -58 25 -40 27 -51 19 -80 -6 -22
-5 -40 2 -53 5 -11 10 -26 10 -33 -1 -7 -9 4 -20 25 -10 21 -33 54 -50 73 -17
19 -28 40 -24 45 3 5 0 16 -6 24 -16 20 -3 80 14 66 7 -6 16 -8 19 -4z m1287
-6 c0 -18 -23 -71 -31 -71 -4 0 -13 10 -20 21 -8 15 -8 19 0 15 6 -4 16 4 23
18 11 25 28 35 28 17z m-1179 -38 c-12 -20 -14 -14 -5 12 4 9 9 14 11 11 3 -2
0 -13 -6 -23z m726 -223 c7 -19 14 -46 17 -60 3 -14 12 -51 19 -82 8 -32 11
-55 7 -53 -19 12 -100 194 -100 226 0 9 33 18 40 10 3 -3 11 -22 17 -41z
m-1267 5 c0 -14 -4 -25 -10 -25 -5 0 -10 4 -10 9 0 5 -3 16 -6 25 -4 11 -1 16
10 16 10 0 16 -9 16 -25z m539 -118 c-1 -85 -6 -79 -12 15 -3 38 -1 65 4 62 5
-3 9 -38 8 -77z m-3849 33 c0 -5 -2 -10 -4 -10 -3 0 -8 5 -11 10 -3 6 -1 10 4
10 6 0 11 -4 11 -10z m4474 -26 c11 -28 6 -41 -19 -52 -31 -14 -31 -29 -2 -61
l22 -25 -32 23 c-31 21 -40 44 -33 90 5 36 52 55 64 25z m-4416 -34 c3 -42
-15 -38 -20 4 -2 21 0 32 7 30 6 -3 12 -18 13 -34z m-38 -80 c-28 -24 -27 -24
-27 -5 0 8 4 15 9 15 4 0 8 9 8 21 0 19 1 19 16 4 15 -14 14 -17 -6 -35z
m4510 20 c0 -5 -4 -10 -10 -10 -5 0 -10 5 -10 10 0 6 5 10 10 10 6 0 10 -4 10
-10z m-4484 -57 c-11 -11 -19 6 -11 24 8 17 8 17 12 0 3 -10 2 -21 -1 -24z
m4481 -3 c3 -17 10 -33 14 -36 5 -3 9 -14 9 -24 0 -39 20 -67 45 -62 20 3 25
-1 34 -34 18 -68 24 -144 12 -144 -16 0 -72 65 -93 108 -10 19 -24 42 -32 51
-7 9 -21 38 -30 65 -13 41 -14 55 -4 78 17 37 37 36 45 -2z m-4582 -20 c3 -5
1 -10 -4 -10 -6 0 -11 5 -11 10 0 6 2 10 4 10 3 0 8 -4 11 -10z m4662 -77 c-3
-10 -5 -4 -5 12 0 17 2 24 5 18 2 -7 2 -21 0 -30z m70 -168 c4 -104 -12 -70
-19 39 -4 57 -2 73 5 60 6 -10 12 -55 14 -99z m-337 90 c0 -8 -7 -15 -15 -15
-16 0 -20 12 -8 23 11 12 23 8 23 -8z m-398 -42 c10 -20 16 -38 14 -40 -2 -2
-15 2 -30 8 -25 12 -36 46 -19 62 12 12 18 7 35 -30z m-4462 -53 c0 -5 -9 -10
-20 -10 -11 0 -20 5 -20 10 0 6 9 10 20 10 11 0 20 -4 20 -10z m507 -22 c-3
-8 -6 -5 -6 6 -1 11 2 17 5 13 3 -3 4 -12 1 -19z m4363 -29 c0 -11 -4 -17 -10
-14 -5 3 -10 13 -10 21 0 8 5 14 10 14 6 0 10 -9 10 -21z m-4320 -18 c0 -16
-6 -31 -14 -34 -11 -5 -12 1 -3 29 13 42 17 43 17 5z m4362 -53 c-6 -23 -17
-13 -26 25 -6 26 -6 26 13 11 11 -10 16 -24 13 -36z m-4332 3 c0 -6 -4 -12 -8
-15 -5 -3 -9 1 -9 9 0 8 4 15 9 15 4 0 8 -4 8 -9z m4587 -23 c-3 -7 -5 -2 -5
12 0 14 2 19 5 13 2 -7 2 -19 0 -25z m36 -40 c3 -21 2 -38 -2 -38 -8 0 -21 48
-21 78 0 29 17 -2 23 -40z m-4607 15 c7 -10 13 -29 13 -43 l0 -25 -14 25 c-8
14 -15 21 -15 15 -1 -5 -5 -1 -9 10 -14 35 3 47 25 18z m4374 -38 c0 -28 -15
-34 -24 -9 -10 25 -7 34 9 34 9 0 15 -9 15 -25z m100 -10 c0 -8 -4 -15 -10
-15 -5 0 -10 7 -10 15 0 8 5 15 10 15 6 0 10 -7 10 -15z m-4482 -17 c21 -40
39 -103 34 -116 -2 -8 1 -25 8 -38 11 -20 10 -31 -3 -66 -16 -40 -16 -43 3
-63 12 -13 17 -28 13 -43 -6 -23 -25 -31 -22 -9 4 33 -2 47 -21 47 -16 0 -20
7 -20 30 0 17 4 30 10 30 16 0 22 43 11 85 -5 22 -12 51 -16 65 -6 24 -6 24
10 -2 21 -37 27 -35 14 2 -6 17 -15 30 -20 30 -14 0 -41 48 -34 60 10 16 21
12 33 -12z m4352 -5 c-1 -10 -10 -34 -21 -53 l-20 -35 6 44 c3 24 8 48 11 53
9 14 24 9 24 -9z m230 -213 c0 -5 -4 -10 -10 -10 -5 0 -10 5 -10 10 0 6 5 10
10 10 6 0 10 -4 10 -10z m456 -47 c-10 -10 -19 5 -10 18 6 11 8 11 12 0 2 -7
1 -15 -2 -18z m-626 -33 c0 -5 -4 -10 -10 -10 -5 0 -10 5 -10 10 0 6 5 10 10
10 6 0 10 -4 10 -10z m-4404 -55 c4 -8 17 -15 30 -15 13 0 24 -4 24 -10 0 -5
-5 -10 -11 -10 -7 0 -18 -8 -25 -17 -12 -17 -13 -16 -14 7 -1 14 -4 19 -7 13
-2 -7 -9 -13 -15 -13 -6 0 -6 6 2 15 10 12 10 18 0 30 -9 11 -9 15 -1 15 6 0
14 -7 17 -15z m4324 -49 c0 -16 -24 -38 -33 -30 -7 7 14 44 25 44 5 0 8 -6 8
-14z m-5014 -7 c10 -17 -12 -32 -37 -24 -22 7 -22 8 -4 21 23 17 32 17 41 3z
m734 -81 c0 -5 -2 -8 -5 -8 -9 0 -45 34 -45 43 0 10 49 -25 50 -35z m4170 3
c0 -6 -4 -13 -10 -16 -5 -3 -10 1 -10 9 0 9 5 16 10 16 6 0 10 -4 10 -9z
m-130 -25 c0 -3 -4 -8 -10 -11 -5 -3 -10 -1 -10 4 0 6 5 11 10 11 6 0 10 -2
10 -4z m97 -12 c-3 -3 -12 -4 -19 -1 -8 3 -5 6 6 6 11 1 17 -2 13 -5z m683
-44 c0 -5 -4 -10 -10 -10 -5 0 -10 5 -10 10 0 6 5 10 10 10 6 0 10 -4 10 -10z
m-800 -80 c0 -5 -2 -10 -4 -10 -3 0 -8 5 -11 10 -3 6 -1 10 4 10 6 0 11 -4 11
-10z m-4043 -86 c-3 -3 -12 -4 -19 -1 -8 3 -5 6 6 6 11 1 17 -2 13 -5z m4888
-201 c3 -13 2 -23 -3 -23 -10 0 -42 71 -42 93 0 15 36 -40 45 -70z m-3762 10
c-7 -2 -19 -2 -25 0 -7 3 -2 5 12 5 14 0 19 -2 13 -5z m3837 -23 c0 -5 -8 -10
-17 -10 -15 0 -16 2 -3 10 19 12 20 12 20 0z m-924 -95 c19 -19 7 -19 -26 0
-20 11 -21 14 -7 15 10 0 25 -7 33 -15z m64 -65 c0 -5 -5 -10 -11 -10 -5 0 -7
5 -4 10 3 6 8 10 11 10 2 0 4 -4 4 -10z m-4210 -27 c0 -52 -45 -173 -99 -265
-39 -69 -50 -77 -68 -53 -17 24 -17 55 0 55 13 0 70 97 82 140 12 43 66 150
76 150 5 0 9 -12 9 -27z m436 -180 c-6 -6 -36 9 -36 18 0 5 9 4 20 -3 10 -7
18 -14 16 -15z m-607 -9 c7 -6 -21 -34 -34 -34 -7 0 -20 11 -29 24 l-16 25 38
-6 c20 -3 39 -7 41 -9z m228 -56 c-3 -8 -6 -5 -6 6 -1 11 2 17 5 13 3 -3 4
-12 1 -19z m212 -5 c2 -2 -5 -3 -17 -3 -14 0 -22 6 -22 16 0 14 3 15 18 3 9
-7 19 -15 21 -16z m1 -135 c0 -11 -29 -37 -42 -38 -9 0 1 29 15 47 10 14 27 8
27 -9z m3130 -65 c0 -7 -4 -13 -8 -13 -12 0 -32 23 -32 37 0 11 4 11 20 1 11
-7 20 -18 20 -25z m-1456 -42 c9 -14 -4 -41 -19 -41 -18 0 -28 32 -13 42 17
10 26 10 32 -1z m-1984 -32 c11 -19 10 -20 -9 -9 -12 6 -21 15 -21 20 0 18 19
11 30 -11z m1870 -74 c0 -8 6 -15 14 -15 8 0 17 -7 20 -16 3 -8 2 -12 -4 -9
-6 3 -14 4 -19 0 -14 -8 40 -93 63 -101 17 -6 17 -8 -5 -29 -18 -17 -28 -20
-42 -13 -18 9 -18 10 -1 23 17 12 16 13 -4 19 -12 4 -22 15 -22 25 0 10 -9 26
-20 36 -11 10 -20 13 -20 7 0 -7 4 -12 9 -12 5 0 12 -8 15 -17 5 -13 1 -11
-18 6 -19 18 -24 31 -22 60 2 20 8 36 14 36 6 0 14 3 18 8 12 12 24 8 24 -8z
m55 -245 c-3 -5 -10 -10 -16 -10 -5 0 -9 5 -9 10 0 6 7 10 16 10 8 0 12 -4 9
-10z m2755 -90 c0 -5 -10 -10 -22 -10 -19 0 -20 2 -8 10 19 13 30 13 30 0z"/>
<path d="M2858 5103 c7 -3 16 -2 19 1 4 3 -2 6 -13 5 -11 0 -14 -3 -6 -6z"/>
<path d="M375 4990 c3 -5 12 -10 20 -10 8 0 17 5 20 10 4 6 -5 10 -20 10 -15
0 -24 -4 -20 -10z"/>
<path d="M422 4800 c-26 -24 -26 -24 -10 -53 16 -31 39 -46 63 -43 23 4 22 12
-8 72 l-23 45 -22 -21z"/>
<path d="M1082 4998 c-7 -7 -12 -16 -12 -21 0 -5 -7 -15 -15 -24 -12 -12 -13
-18 -4 -29 6 -8 8 -25 5 -39 -4 -14 -2 -25 4 -25 5 0 10 5 10 12 0 9 3 8 13
-1 10 -11 10 -14 0 -18 -7 -3 -13 -9 -13 -14 0 -12 48 11 54 27 3 8 0 11 -8 8
-19 -7 -29 12 -17 34 7 13 7 22 -1 30 -9 9 -8 18 0 37 7 14 12 28 12 30 0 9
-16 5 -28 -7z"/>
<path d="M880 4760 c0 -5 5 -10 11 -10 5 0 7 5 4 10 -3 6 -8 10 -11 10 -2 0
-4 -4 -4 -10z"/>
<path d="M4525 4420 c3 -5 8 -10 11 -10 2 0 4 5 4 10 0 6 -5 10 -11 10 -5 0
-7 -4 -4 -10z"/>
<path d="M4569 4273 c-1 -5 -1 -11 0 -15 0 -4 -16 -16 -37 -25 l-37 -17 50 -3
c69 -5 80 -9 65 -28 -10 -13 -8 -15 13 -15 19 0 30 10 47 41 29 58 22 69 -45
69 -30 0 -56 -3 -56 -7z"/>
<path d="M3195 4040 c-3 -5 1 -10 10 -10 9 0 13 5 10 10 -3 6 -8 10 -10 10 -2
0 -7 -4 -10 -10z"/>
<path d="M5300 3658 c0 -19 2 -20 10 -8 13 19 13 30 0 30 -5 0 -10 -10 -10
-22z"/>
<path d="M5371 3604 c0 -11 3 -14 6 -6 3 7 2 16 -1 19 -3 4 -6 -2 -5 -13z"/>
<path d="M5357 3567 c-11 -29 -9 -43 4 -30 6 6 9 19 7 29 -3 18 -4 18 -11 1z"/>
<path d="M5331 3494 c0 -11 3 -14 6 -6 3 7 2 16 -1 19 -3 4 -6 -2 -5 -13z"/>
<path d="M5265 3411 c-3 -5 -1 -12 5 -16 5 -3 10 1 10 9 0 18 -6 21 -15 7z"/>
<path d="M5031 3294 c0 -11 3 -14 6 -6 3 7 2 16 -1 19 -3 4 -6 -2 -5 -13z"/>
<path d="M5320 3247 c-18 -14 -19 -42 -3 -58 18 -18 33 -1 33 37 0 36 -6 41
-30 21z"/>
<path d="M5038 3214 c-5 -4 -8 -23 -8 -43 0 -25 3 -32 11 -24 6 6 9 25 7 43
-2 17 -6 28 -10 24z"/>
<path d="M5421 3154 c0 -11 3 -14 6 -6 3 7 2 16 -1 19 -3 4 -6 -2 -5 -13z"/>
<path d="M5440 3139 c0 -5 5 -7 10 -4 6 3 10 8 10 11 0 2 -4 4 -10 4 -5 0 -10
-5 -10 -11z"/>
<path d="M5455 2990 c3 -5 11 -10 16 -10 6 0 7 5 4 10 -3 6 -11 10 -16 10 -6
0 -7 -4 -4 -10z"/>
<path d="M5612 2950 c-14 -16 -27 -20 -42 -15 -20 6 -20 5 -8 -17 7 -12 17
-26 21 -29 5 -3 8 -9 8 -13 -3 -22 3 -15 25 32 29 59 27 75 -4 42z"/>
<path d="M5520 2902 c0 -19 59 -80 60 -61 0 8 -13 28 -30 44 -16 16 -30 23
-30 17z"/>
<path d="M5606 2801 c-3 -5 -16 -7 -29 -5 -12 2 -15 1 -7 -2 8 -4 17 -10 20
-14 3 -4 17 -10 33 -14 20 -5 29 -2 34 10 9 24 -38 47 -51 25z"/>
<path d="M5681 2732 c-8 -15 -6 -23 9 -37 11 -10 22 -26 25 -36 7 -20 56 -79
66 -79 3 0 11 12 18 26 10 22 9 30 -6 47 -27 32 -56 61 -80 81 -21 17 -22 17
-32 -2z"/>
<path d="M5615 2590 c-6 -10 1 -14 18 -11 4 0 7 -6 7 -14 0 -9 -6 -12 -15 -9
-11 5 -15 -1 -15 -19 0 -14 7 -28 15 -31 9 -3 21 -19 26 -36 12 -32 27 -38 47
-18 9 9 12 8 12 -4 0 -9 -4 -20 -10 -23 -20 -12 -9 -25 21 -25 27 0 30 3 23
23 -3 12 -13 29 -20 38 -8 8 -14 21 -14 28 0 15 -61 98 -77 105 -7 3 -15 1
-18 -4z"/>
<path d="M5701 2574 c0 -11 3 -14 6 -6 3 7 2 16 -1 19 -3 4 -6 -2 -5 -13z"/>
<path d="M5810 2575 c-7 -9 -10 -18 -7 -21 3 -3 10 4 17 15 13 25 8 27 -10 6z"/>
<path d="M5886 2576 c3 -8 12 -17 21 -20 11 -5 13 -2 9 10 -3 8 -6 18 -6 20 0
2 -7 4 -15 4 -8 0 -12 -6 -9 -14z"/>
<path d="M5597 2432 c-10 -10 -17 -29 -17 -41 0 -16 -4 -21 -15 -17 -9 3 -15
0 -15 -9 0 -8 7 -15 15 -15 8 0 15 4 15 9 0 5 13 11 29 14 34 7 45 30 28 57
-15 25 -20 25 -40 2z"/>
<path d="M5650 2370 c-6 -11 -23 -27 -38 -35 -26 -15 -26 -16 -2 -9 14 4 25 7
25 8 0 0 11 13 24 29 14 15 19 27 13 27 -6 0 -16 -9 -22 -20z"/>
<path d="M5837 2274 c-8 -8 1 -24 14 -24 5 0 9 7 9 15 0 15 -12 20 -23 9z"/>
<path d="M5785 2160 c-3 -5 -1 -10 4 -10 6 0 11 5 11 10 0 6 -2 10 -4 10 -3 0
-8 -4 -11 -10z"/>
<path d="M5650 1901 c0 -17 30 -25 43 -12 8 8 8 11 0 11 -6 0 -18 3 -27 6 -9
3 -16 1 -16 -5z"/>
<path d="M5295 967 c-4 -10 -5 -21 -1 -24 10 -10 18 4 13 24 -4 17 -4 17 -12
0z"/>
<path d="M4500 3001 c0 -5 5 -13 10 -16 6 -3 10 -2 10 4 0 5 -4 13 -10 16 -5
3 -10 2 -10 -4z"/>
<path d="M5322 2370 c12 -19 38 -35 38 -24 0 16 -23 44 -35 44 -13 0 -13 -3
-3 -20z"/>
<path d="M2590 5475 c0 -21 19 -27 55 -16 26 8 27 9 7 10 -13 1 -32 6 -43 11
-15 9 -19 7 -19 -5z"/>
<path d="M3520 5291 c0 -5 7 -14 15 -21 18 -15 42 1 31 19 -8 13 -46 15 -46 2z"/>
<path d="M2061 4864 c0 -11 3 -14 6 -6 3 7 2 16 -1 19 -3 4 -6 -2 -5 -13z"/>
<path d="M2035 4520 c3 -5 8 -10 11 -10 2 0 4 5 4 10 0 6 -5 10 -11 10 -5 0
-7 -4 -4 -10z"/>
<path d="M0 4450 c0 -5 5 -10 10 -10 6 0 10 5 10 10 0 6 -4 10 -10 10 -5 0
-10 -4 -10 -10z"/>
<path d="M800 4020 c20 -13 33 -13 25 0 -3 6 -14 10 -23 10 -15 0 -15 -2 -2
-10z"/>
<path d="M825 3990 c3 -5 8 -10 11 -10 2 0 4 5 4 10 0 6 -5 10 -11 10 -5 0 -7
-4 -4 -10z"/>
<path d="M852 3922 c-7 -14 -12 -32 -12 -39 0 -19 41 -63 59 -63 11 0 8 7 -12
25 -31 30 -32 33 -13 54 12 13 12 19 2 32 -10 15 -13 14 -24 -9z"/>
<path d="M679 3915 c54 -13 95 -10 85 6 -3 5 -35 9 -72 8 l-67 -1 54 -13z"/>
<path d="M538 3895 c-58 -16 -71 -24 -65 -39 3 -7 -10 -29 -29 -50 -33 -36
-39 -46 -29 -46 2 0 35 27 72 61 37 34 82 67 98 75 37 16 16 16 -47 -1z"/>
<path d="M1013 3813 c9 -2 17 -10 17 -17 0 -9 9 -12 25 -8 18 3 25 0 25 -12 0
-9 -4 -16 -10 -16 -5 0 -10 5 -10 12 0 18 -10 3 -15 -22 -3 -16 0 -20 10 -16
8 3 21 -1 29 -9 12 -13 15 -13 20 0 3 8 1 15 -4 15 -6 0 -10 5 -10 11 0 5 4 8
8 5 4 -2 14 -1 22 4 11 7 12 14 2 34 -12 26 -32 36 -32 15 0 -5 -5 -7 -12 -3
-7 4 -28 9 -48 10 -19 1 -27 0 -17 -3z"/>
<path d="M725 3780 c4 -14 13 -28 19 -32 20 -13 18 1 -4 29 -22 28 -22 28 -15
3z"/>
<path d="M860 3765 c0 -8 7 -15 15 -15 9 0 12 6 9 15 -4 8 -10 15 -15 15 -5 0
-9 -7 -9 -15z"/>
<path d="M870 3729 c0 -5 5 -7 10 -4 6 3 10 8 10 11 0 2 -4 4 -10 4 -5 0 -10
-5 -10 -11z"/>
<path d="M1132 3720 c-10 -17 -10 -21 3 -26 22 -9 27 -1 18 24 -8 22 -8 22
-21 2z"/>
<path d="M724 3718 c-4 -6 -1 -9 7 -6 8 3 26 -4 42 -14 22 -16 27 -17 27 -4 0
26 -62 46 -76 24z"/>
<path d="M960 3685 c0 -18 -16 -20 -23 -2 -3 7 -6 5 -6 -5 -1 -13 7 -18 26
-18 25 0 26 -1 8 -14 -17 -12 -18 -18 -8 -37 7 -13 18 -40 26 -59 13 -33 13
-36 -4 -36 -9 0 -15 4 -13 8 3 4 -2 5 -9 2 -21 -8 -29 -45 -14 -63 9 -12 9
-13 0 -7 -9 5 -13 1 -13 -11 0 -26 -46 -88 -53 -71 -3 7 -6 -2 -6 -20 -1 -20
6 -38 18 -49 11 -9 18 -21 15 -27 -3 -6 6 3 20 19 30 35 70 147 63 176 -3 12
0 19 9 19 13 0 16 -8 27 -70 3 -14 11 -39 18 -57 11 -26 10 -36 -1 -60 -14
-29 -18 -98 -6 -110 12 -13 6 -21 -14 -16 -23 6 -27 -12 -5 -21 8 -3 15 -13
15 -23 0 -32 19 1 26 45 4 28 3 42 -5 42 -6 0 -2 9 9 20 17 17 20 33 20 98 0
43 -7 105 -16 137 -9 33 -22 83 -28 110 -16 71 -76 150 -76 100z m-38 -369
c-3 -5 -9 1 -14 13 -4 13 -5 28 -1 34 8 14 23 -33 15 -47z"/>
<path d="M1113 3659 c6 -15 15 -25 20 -22 5 3 4 -3 -1 -14 -6 -10 -7 -25 -2
-32 6 -10 10 -8 15 8 10 32 -4 78 -24 84 -16 4 -17 1 -8 -24z"/>
<path d="M730 3630 c0 -13 5 -18 15 -14 8 4 15 10 15 14 0 4 -7 10 -15 14 -10
4 -15 -1 -15 -14z"/>
<path d="M4734 3579 c-3 -6 0 -15 7 -20 12 -8 12 -10 0 -18 -7 -5 -11 -13 -8
-18 4 -6 2 -26 -4 -46 -7 -28 -6 -50 7 -94 15 -50 18 -55 25 -35 5 12 10 63
12 112 2 49 6 93 10 96 4 4 -1 13 -11 20 -21 17 -29 17 -38 3z"/>
<path d="M1136 3522 c-3 -6 -1 -14 5 -17 15 -10 25 3 12 16 -7 7 -13 7 -17 1z"/>
<path d="M1165 3411 c-3 -5 -1 -12 5 -16 5 -3 10 1 10 9 0 18 -6 21 -15 7z"/>
<path d="M1380 3255 c7 -8 16 -15 21 -15 5 0 6 7 3 15 -4 8 -13 15 -21 15 -13
0 -13 -3 -3 -15z"/>
<path d="M1250 3246 c0 -9 5 -16 10 -16 6 0 10 4 10 9 0 6 -4 13 -10 16 -5 3
-10 -1 -10 -9z"/>
<path d="M1205 3220 c-4 -18 -13 -30 -23 -31 -14 0 -13 -2 3 -8 11 -5 24 -6
29 -3 6 3 0 -8 -12 -25 -25 -35 -28 -53 -9 -53 6 0 4 -5 -5 -11 -10 -6 -18
-22 -18 -37 0 -15 -9 -45 -19 -66 -19 -36 -19 -38 -2 -33 11 2 18 -1 18 -10 0
-10 -8 -12 -27 -8 -21 5 -29 1 -40 -20 -7 -14 -17 -25 -22 -25 -4 0 -8 -6 -8
-14 0 -8 -6 -16 -12 -18 -7 -3 9 -10 35 -16 30 -8 47 -18 47 -27 0 -8 -4 -15
-10 -15 -5 0 -10 -9 -10 -20 0 -11 -7 -20 -15 -20 -9 0 -15 -7 -13 -17 2 -10
-7 -22 -22 -30 -19 -10 -21 -13 -7 -13 13 0 126 93 157 130 3 3 19 16 36 28
22 15 33 32 37 59 6 35 -7 148 -20 183 -8 20 -3 43 10 52 9 5 9 10 -1 20 -9 9
-12 9 -12 -5 0 -9 -4 -17 -10 -17 -5 0 -10 11 -10 24 0 14 -4 28 -10 31 -5 3
-10 15 -10 26 0 30 -18 22 -25 -11z m6 -190 c-7 -3 -9 -14 -5 -23 4 -11 1 -17
-9 -17 -13 0 -14 5 -6 30 6 16 15 27 21 24 7 -4 6 -9 -1 -14z m-79 -130 c-12
-11 -24 -20 -27 -20 -3 0 0 9 7 20 7 11 19 20 27 20 11 0 9 -6 -7 -20z m-27
-40 c-3 -5 -11 -10 -16 -10 -6 0 -7 5 -4 10 3 6 11 10 16 10 6 0 7 -4 4 -10z
m35 -4 c0 -3 -4 -8 -10 -11 -5 -3 -10 -1 -10 4 0 6 5 11 10 11 6 0 10 -2 10
-4z"/>
<path d="M642 3218 c6 -18 28 -21 28 -4 0 9 -7 16 -16 16 -9 0 -14 -5 -12 -12z"/>
<path d="M1410 3185 c28 -29 27 -29 27 -10 0 8 -6 15 -14 15 -7 0 -13 5 -13
10 0 6 -5 10 -12 10 -6 0 -1 -11 12 -25z"/>
<path d="M985 3104 c-32 -30 -26 -44 10 -20 14 9 25 12 25 6 0 -5 5 -10 10
-10 15 0 12 26 -4 39 -10 8 -19 5 -41 -15z"/>
<path d="M500 3100 c0 -5 7 -7 15 -4 8 4 15 8 15 10 0 2 -7 4 -15 4 -8 0 -15
-4 -15 -10z"/>
<path d="M997 3066 c-4 -10 -1 -13 9 -9 7 3 14 9 14 14 0 14 -17 10 -23 -5z"/>
<path d="M588 3063 c7 -3 16 -2 19 1 4 3 -2 6 -13 5 -11 0 -14 -3 -6 -6z"/>
<path d="M4700 3028 c0 -9 5 -20 10 -23 13 -8 13 5 0 25 -8 13 -10 13 -10 -2z"/>
<path d="M1440 3019 c0 -5 5 -7 10 -4 6 3 10 8 10 11 0 2 -4 4 -10 4 -5 0 -10
-5 -10 -11z"/>
<path d="M1460 2969 c0 -5 5 -7 10 -4 6 3 10 8 10 11 0 2 -4 4 -10 4 -5 0 -10
-5 -10 -11z"/>
<path d="M1033 2833 c9 -2 23 -2 30 0 6 3 -1 5 -18 5 -16 0 -22 -2 -12 -5z"/>
<path d="M1035 2811 c3 -6 -3 -15 -12 -21 -15 -9 -12 -10 15 -5 20 4 32 3 32
-4 0 -6 6 -11 13 -11 7 0 13 9 13 20 0 15 -5 18 -25 13 -17 -4 -22 -2 -17 6 4
6 1 11 -9 11 -9 0 -14 -4 -10 -9z"/>
<path d="M1270 2720 c0 -5 7 -7 15 -4 8 4 15 8 15 10 0 2 -7 4 -15 4 -8 0 -15
-4 -15 -10z"/>
<path d="M1010 2651 c0 -24 3 -28 20 -24 11 3 20 10 20 15 0 5 -4 6 -10 3 -5
-3 -7 0 -4 8 3 8 -2 17 -10 20 -12 5 -16 0 -16 -22z"/>
<path d="M1275 2580 c-3 -6 1 -7 9 -4 18 7 21 14 7 14 -6 0 -13 -4 -16 -10z"/>
<path d="M4936 2544 c-4 -9 -4 -19 -2 -21 8 -8 26 8 26 23 0 19 -16 18 -24 -2z"/>
<path d="M1190 2530 c-12 -8 -11 -10 8 -10 12 0 22 5 22 10 0 13 -11 13 -30 0z"/>
<path d="M1276 2497 c2 -7 16 -14 30 -15 15 -1 23 2 19 8 -4 6 -11 8 -16 5 -5
-4 -9 -1 -9 4 0 6 -7 11 -15 11 -8 0 -12 -6 -9 -13z"/>
<path d="M1331 2374 c0 -11 3 -14 6 -6 3 7 2 16 -1 19 -3 4 -6 -2 -5 -13z"/>
<path d="M1330 2319 c0 -5 5 -7 10 -4 6 3 10 8 10 11 0 2 -4 4 -10 4 -5 0 -10
-5 -10 -11z"/>
<path d="M4935 2304 c-9 -14 -15 -27 -13 -30 2 -2 12 10 22 26 21 37 15 40 -9
4z"/>
<path d="M1270 2179 c0 -5 5 -7 10 -4 6 3 10 8 10 11 0 2 -4 4 -10 4 -5 0 -10
-5 -10 -11z"/>
<path d="M1315 2130 c-16 -7 -12 -9 18 -9 20 -1 37 3 37 7 0 11 -31 12 -55 2z"/>
<path d="M1328 2023 c6 -2 18 -2 25 0 6 3 1 5 -13 5 -14 0 -19 -2 -12 -5z"/>
<path d="M4735 1870 c10 -11 22 -17 27 -14 5 3 1 12 -9 20 -27 20 -39 17 -18
-6z"/>
<path d="M4634 1788 c3 -13 6 -26 6 -30 0 -5 5 -8 11 -8 16 0 41 -29 34 -40
-3 -5 0 -7 8 -4 10 4 15 -3 15 -22 0 -16 5 -30 11 -32 6 -2 11 -11 12 -20 0
-14 2 -13 8 3 8 19 -19 74 -71 148 -24 33 -43 36 -34 5z"/>
<path d="M4544 1664 c3 -9 6 -20 6 -26 0 -6 7 -7 16 -4 8 3 12 2 9 -4 -3 -6
-2 -10 3 -10 11 0 4 -38 -9 -56 -5 -5 -6 -20 -2 -32 4 -16 1 -22 -11 -22 -9 0
-16 5 -16 11 0 8 -4 8 -15 -1 -12 -10 -18 -6 -33 20 -13 20 -22 27 -27 20 -4
-6 -2 -17 4 -24 6 -7 13 -32 16 -55 5 -42 34 -80 61 -81 14 0 24 -23 24 -55 0
-13 5 -27 10 -30 17 -10 11 48 -10 90 -26 54 -25 66 11 98 38 33 56 34 70 5 8
-19 9 -18 4 11 -3 19 -16 49 -30 67 -14 18 -25 37 -25 42 0 10 -43 52 -54 52
-5 0 -5 -7 -2 -16z"/>
<path d="M655 1630 c-3 -5 -2 -10 4 -10 5 0 13 5 16 10 3 6 2 10 -4 10 -5 0
-13 -4 -16 -10z"/>
<path d="M630 1600 c0 -5 7 -7 15 -4 8 4 15 8 15 10 0 2 -7 4 -15 4 -8 0 -15
-4 -15 -10z"/>
<path d="M656 1554 c-5 -14 -4 -15 9 -4 17 14 19 20 6 20 -5 0 -12 -7 -15 -16z"/>
<path d="M628 1513 c7 -3 16 -2 19 1 4 3 -2 6 -13 5 -11 0 -14 -3 -6 -6z"/>
<path d="M394 1374 c3 -9 6 -17 6 -20 0 -2 7 -1 15 2 17 7 19 0 5 -25 -7 -14
-18 -17 -43 -15 -18 2 -92 -2 -163 -10 -123 -14 -130 -14 -160 5 -41 25 -54
24 -54 -5 0 -19 4 -22 25 -18 22 4 25 1 25 -27 0 -36 -13 -40 -34 -9 -15 21
-16 8 -16 -165 l0 -187 36 0 c36 0 51 -9 72 -45 11 -20 12 -20 18 3 4 13 23
31 43 42 21 10 43 25 50 34 13 16 36 12 62 -11 10 -8 26 -11 40 -8 29 8 69 67
69 101 0 25 15 33 22 12 3 -9 12 -8 32 5 32 21 43 44 28 59 -8 8 -25 0 -60
-25 -51 -36 -72 -35 -72 4 0 21 38 69 55 69 7 0 39 24 72 54 l58 55 -32 33
c-23 24 -33 43 -33 66 0 18 -3 33 -7 33 -55 8 -64 7 -59 -7z m-234 -114 c0 -5
7 -10 15 -10 25 0 17 -19 -16 -36 -40 -20 -58 -7 -41 31 11 24 42 35 42 15z
m84 -35 c-5 -19 -9 -23 -15 -14 -4 7 -3 21 3 32 13 26 21 15 12 -18z"/>
<path d="M678 1373 c7 -3 16 -2 19 1 4 3 -2 6 -13 5 -11 0 -14 -3 -6 -6z"/>
<path d="M635 1350 c3 -5 8 -10 11 -10 2 0 4 5 4 10 0 6 -5 10 -11 10 -5 0 -7
-4 -4 -10z"/>
<path d="M903 1155 c0 -22 2 -30 4 -17 2 12 2 30 0 40 -3 9 -5 -1 -4 -23z"/>
<path d="M1360 1060 c0 -13 28 -25 38 -16 3 4 0 11 -8 16 -20 13 -30 12 -30 0z"/>
<path d="M479 980 c-22 -22 -44 -40 -48 -40 -5 0 -11 -11 -13 -24 -4 -20 -1
-24 15 -20 18 3 78 51 99 79 11 15 10 45 -3 45 -6 0 -28 -18 -50 -40z"/>
<path d="M1063 968 c-13 -6 -23 -15 -23 -20 0 -16 43 -47 65 -48 51 0 58 46 9
68 -14 7 -26 12 -27 11 -1 0 -12 -5 -24 -11z"/>
<path d="M955 949 c-4 -6 -5 -12 -2 -15 2 -3 7 2 10 11 7 17 1 20 -8 4z"/>
<path d="M107 815 c-5 -10 0 -15 14 -15 12 0 19 5 17 12 -6 18 -25 20 -31 3z"/>
<path d="M1828 803 c7 -3 16 -2 19 1 4 3 -2 6 -13 5 -11 0 -14 -3 -6 -6z"/>
</g>
</svg>
